:SAMPLES-PER-SECOND 30
:FRAME-RANGE 1-2775
:FULLY-SPECIFIED
:DEGREES
1215
root  -29.6795 39.0789 -20.5835 -6.7652 -54.9331 7.64001
RightUpLeg  -4.57628 -6.94469 -4.66808
RightLeg  24.6055 -5.80196 -3.12369
RightFoot  -18.5906 0.114944 3.802
RightToes  1.218e-010 1.26228e-014 -6.01869e-014
Spine  -10.7716 -0.629488 4.78961
Spine1  14.068 -2.18931 4.05461
HEad  13.0391 -1.4734 5.76629
LeftShoulder1  0.0632612 3.09051 -23.6213
LeftArm  -7.9371 29.2199 -32.6899
LeftForeArm  -9.53791 -45.1105 -11.8628
LeftHand  -0.0291378 5.25772 5.57538
RightShoulder  1.63954 1.40723 28.8388
RightArm  -7.33571 -7.43275 44.8906
RightForeArm  20.2083 60.5338 18.3603
RightHand  0.155031 -6.5352 -17.2275
LeftUpLeg  -13.9324 -5.80532 -1.79695
LeftLeg  23.3261 2.33182 1.43075
LeftFoot  -9.24392 0.19427 -7.58286
LeftToes  5.08156e-010 -6.90346e-011 -6.33378e-011
1216
root  -29.6966 38.9081 -20.5314 -7.18594 -53.7083 6.72388
RightUpLeg  -3.57578 -6.31171 -4.24423
RightLeg  26.0008 -7.13718 -4.00591
RightFoot  -19.7096 0.167549 4.11479
RightToes  1.218e-010 1.26228e-014 -6.01869e-014
Spine  -11.2475 -0.415987 4.75436
Spine1  13.8618 -1.83282 3.80922
HEad  14.0669 -0.606057 5.68738
LeftShoulder1  0.35313 2.05161 -22.0764
LeftArm  -8.36518 28.9553 -34.0102
LeftForeArm  -8.1613 -45.5585 -11.9615
LeftHand  -0.0274841 5.29512 5.69732
RightShoulder  1.39709 0.593883 29.8694
RightArm  -7.84746 -7.91459 43.9331
RightForeArm  18.3631 59.5379 17.7397
RightHand  0.183339 -6.68405 -17.7402
LeftUpLeg  -13.0034 -4.87151 -1.69395
LeftLeg  25.5503 -0.161679 0.248262
LeftFoot  -10.0642 0.137548 -6.93001
LeftToes  5.08156e-010 -6.90346e-011 -6.33378e-011
1217
root  -29.7354 38.7772 -20.4668 -7.83365 -52.6284 6.02197
RightUpLeg  -2.38883 -6.65661 -3.99797
RightLeg  27.0269 -7.88376 -4.57874
RightFoot  -20.5168 0.210597 4.35603
RightToes  1.218e-010 1.26228e-014 -6.01869e-014
Spine  -11.4928 -0.376289 4.36959
Spine1  13.5952 -1.79423 3.87071
HEad  15.1126 2.36892 4.79229
LeftShoulder1  0.384064 1.92827 -21.7809
LeftArm  -7.83895 27.8849 -34.4295
LeftForeArm  -8.19716 -46.0075 -12.1521
LeftHand  -0.00645185 5.70142 6.47135
RightShoulder  1.41888 0.667511 29.7548
RightArm  -9.80117 -8.87303 44.0886
RightForeArm  18.0534 58.8976 17.272
RightHand  0.166017 -6.57903 -17.6186
LeftUpLeg  -11.3217 -4.66007 -1.53021
LeftLeg  25.3358 -1.6107 -0.498798
LeftFoot  -11.6178 0.054666 -6.16853
LeftToes  5.08156e-010 -6.90346e-011 -6.33378e-011
1218
root  -29.7728 38.701 -20.4224 -7.99652 -51.1995 4.87811
RightUpLeg  -0.945851 -6.80586 -3.33564
RightLeg  27.2738 -9.1347 -5.30842
RightFoot  -20.9609 0.260604 4.7839
RightToes  1.218e-010 1.26228e-014 -6.01869e-014
Spine  -11.452 -0.415686 3.99533
Spine1  12.9244 -1.86212 3.96792
HEad  15.2106 6.64177 3.75449
LeftShoulder1  0.392162 1.8955 -21.7017
LeftArm  -7.6451 26.3965 -34.943
LeftForeArm  -7.80311 -46.2909 -12.2475
LeftHand  0.00479006 5.86774 6.98391
RightShoulder  1.35382 0.454137 30.0473
RightArm  -11.7418 -9.44125 44.0534
RightForeArm  18.476 58.5544 16.9692
RightHand  0.140788 -6.47147 -16.769
LeftUpLeg  -10.2146 -4.58504 -1.16664
LeftLeg  25.6184 -2.62447 -1.03675
LeftFoot  -12.7302 0.0181143 -4.79526
LeftToes  5.08156e-010 -6.90346e-011 -6.33378e-011
1219
root  -29.7744 38.54 -20.4049 -8.02902 -49.2175 3.64465
RightUpLeg  -0.0382807 -7.31615 -2.6094
RightLeg  28.4683 -10.4509 -6.31433
RightFoot  -21.6528 0.31929 5.16345
RightToes  1.218e-010 1.26228e-014 -6.01869e-014
Spine  -10.9501 -0.544299 3.40303
Spine1  12.1702 -1.97809 4.4063
HEad  14.6091 11.0119 3.09913
LeftShoulder1  0.335102 2.09878 -21.6598
LeftArm  -7.86653 24.0734 -36.0139
LeftForeArm  -6.95485 -46.3388 -12.2132
LeftHand  0.0085732 5.89017 7.14291
RightShoulder  1.28474 0.223066 30.4437
RightArm  -13.5765 -9.34258 43.8734
RightForeArm  17.0525 57.8032 16.5651
RightHand  0.101375 -6.19985 -16.6887
LeftUpLeg  -10.3544 -5.62825 -0.686744
LeftLeg  27.7558 -3.5756 -1.7024
LeftFoot  -13.5726 -0.00744552 -4.55609
LeftToes  5.08156e-010 -6.90346e-011 -6.33378e-011
1220
root  -29.7789 38.403 -20.3846 -7.82379 -47.6213 2.24106
RightUpLeg  0.858168 -7.98122 -1.74725
RightLeg  29.2002 -11.4187 -7.06045
RightFoot  -22.292 0.345555 5.17962
RightToes  1.218e-010 1.26228e-014 -6.01869e-014
Spine  -10.5137 -0.135385 3.59504
Spine1  11.9459 -1.43976 4.26417
HEad  13.2287 14.6324 2.25243
LeftShoulder1  0.346813 2.05529 -21.6274
LeftArm  -7.99723 21.3101 -37.5123
LeftForeArm  -5.79182 -46.7044 -12.2944
LeftHand  0.0212423 6.06472 7.77129
RightShoulder  1.29186 0.23277 30.548
RightArm  -15.8309 -9.72102 43.861
RightForeArm  14.9702 57.2867 16.4059
RightHand  0.0879056 -6.12253 -16.3566
LeftUpLeg  -10.4852 -5.95455 0.0257102
LeftLeg  29.6089 -4.66134 -2.52035
LeftFoot  -14.0728 0.00427566 -3.35763
LeftToes  5.08156e-010 -6.90346e-011 -6.33378e-011
1221
root  -29.761 38.308 -20.3564 -7.70886 -46.302 1.01282
RightUpLeg  1.79514 -8.2531 -0.938807
RightLeg  29.5358 -12.3798 -7.71655
RightFoot  -22.555 0.404525 5.67571
RightToes  1.218e-010 1.26228e-014 -6.01869e-014
Spine  -9.81437 0.196841 3.9699
Spine1  11.9924 -0.983796 3.8781
HEad  11.4767 18.2515 1.16265
LeftShoulder1  0.128879 2.85585 -22.6753
LeftArm  -7.08793 17.9409 -38.0817
LeftForeArm  -3.73893 -47.6249 -12.5617
LeftHand  0.0393354 6.26197 8.56931
RightShoulder  1.5576 1.07575 29.6088
RightArm  -18.5427 -10.1464 44.6792
RightForeArm  12.7203 56.1591 15.8581
RightHand  0.0468748 -5.82768 -16.341
LeftUpLeg  -10.4112 -6.50636 0.646353
LeftLeg  30.9456 -5.32226 -3.0941
LeftFoot  -14.6741 0.00411006 -2.88172
LeftToes  5.08156e-010 -6.90346e-011 -6.33378e-011
1222
root  -29.7386 38.1632 -20.3473 -7.55835 -45.338 0.0259094
RightUpLeg  2.134 -9.9798 -0.774923
RightLeg  30.3557 -11.7062 -7.54899
RightFoot  -23.0323 0.441107 5.83124
RightToes  1.218e-010 1.26228e-014 -6.01869e-014
Spine  -9.10629 0.802728 4.66469
Spine1  12.1949 -0.0127844 2.4149
HEad  9.49637 20.8494 0.324528
LeftShoulder1  0.112336 2.91447 -22.7639
LeftArm  -6.51663 15.1505 -39.2323
LeftForeArm  -2.64256 -48.4561 -12.8642
LeftHand  0.0560728 6.47166 9.25002
RightShoulder  1.66274 1.41851 29.2594
RightArm  -20.5817 -9.97965 45.227
RightForeArm  9.75133 54.3895 15.0177
RightHand  -0.0412289 -5.19923 -17.6602
LeftUpLeg  -10.7361 -6.85636 1.22592
LeftLeg  32.6193 -5.8625 -3.68216
LeftFoot  -15.5163 -0.00220971 -2.61204
LeftToes  5.08156e-010 -6.90346e-011 -6.33378e-011
1223
root  -29.7235 38.0677 -20.327 -7.04245 -44.4436 -1.19608
RightUpLeg  2.55172 -11.519 -0.362144
RightLeg  30.5629 -11.1675 -7.2772
RightFoot  -23.2363 0.477131 6.0892
RightToes  1.218e-010 1.26228e-014 -6.01869e-014
Spine  -8.25799 1.20455 5.47584
Spine1  12.3564 0.744571 1.2252
HEad  7.51304 22.9018 -0.908758
LeftShoulder1  0.111298 2.92199 -23.0772
LeftArm  -6.44779 13.0863 -40.2564
LeftForeArm  -1.15057 -49.5083 -13.2557
LeftHand  0.0324323 6.2327 8.29491
RightShoulder  1.77022 1.7598 29.0155
RightArm  -21.955 -9.64511 45.5897
RightForeArm  7.4651 52.6834 14.2333
RightHand  -0.0660046 -5.02906 -17.3018
LeftUpLeg  -11.0956 -7.39997 2.00157
LeftLeg  33.9063 -6.21433 -4.12658
LeftFoot  -16.1209 -0.0021438 -2.36679
LeftToes  5.08156e-010 -6.90346e-011 -6.33378e-011
1224
root  -29.7157 37.9583 -20.3437 -6.54907 -43.6107 -2.01877
RightUpLeg  2.17069 -10.0875 1.02573
RightLeg  31.5976 -13.2709 -8.89317
RightFoot  -23.2229 0.602729 7.29946
RightToes  1.218e-010 1.26228e-014 -6.01869e-014
Spine  -7.2174 1.44317 5.5913
Spine1  12.398 1.24824 0.34811
HEad  5.31128 24.556 -2.69009
LeftShoulder1  0.123023 2.88505 -23.3173
LeftArm  -6.54955 11.9658 -41.3176
LeftForeArm  0.90886 -51.2234 -13.9642
LeftHand  0.0504877 6.35851 8.88624
RightShoulder  1.85764 2.03054 28.8858
RightArm  -23.4069 -9.4571 45.9633
RightForeArm  6.32838 51.736 13.8163
RightHand  -0.0819743 -4.9139 -17.0062
LeftUpLeg  -11.7815 -7.98332 2.55403
LeftLeg  35.1286 -6.40504 -4.46795
LeftFoot  -16.4585 0.0122964 -1.93295
LeftToes  5.08156e-010 -6.90346e-011 -6.33378e-011
1225
root  -29.7113 37.9042 -20.3112 -6.37387 -43.5696 -2.33237
RightUpLeg  2.05961 -10.2924 1.15807
RightLeg  32.0208 -13.1321 -8.94201
RightFoot  -23.4153 0.571081 6.89643
RightToes  1.218e-010 1.26228e-014 -6.01869e-014
Spine  -6.09224 1.79571 5.85401
Spine1  12.7579 1.9586 -0.826206
HEad  2.87112 25.9084 -5.06807
LeftShoulder1  0.0776286 3.04413 -23.8654
LeftArm  -5.97616 11.2321 -41.5652
LeftForeArm  3.22428 -53.568 -15.0769
LeftHand  0.106304 6.80979 10.5758
RightShoulder  1.90015 2.18782 28.6612
RightArm  -25.3321 -9.3785 46.5763
RightForeArm  6.55073 51.4175 13.6322
RightHand  -0.113067 -4.69361 -16.8683
LeftUpLeg  -11.9896 -7.92708 2.74617
LeftLeg  35.68 -6.45995 -4.60365
LeftFoot  -16.594 0.025962 -1.60306
LeftToes  5.08156e-010 -6.90346e-011 -6.33378e-011
1226
root  -29.709 37.8928 -20.2818 -5.4679 -43.1927 -3.0701
RightUpLeg  1.69411 -10.16 1.91787
RightLeg  31.9519 -13.6321 -9.23788
RightFoot  -23.1366 0.633744 7.64683
RightToes  1.218e-010 1.26228e-014 -6.01869e-014
Spine  -5.44276 1.9516 6.34804
Spine1  13.3168 2.49198 -1.93993
HEad  0.380601 26.5437 -7.43333
LeftShoulder1  0.20943 2.59677 -23.572
LeftArm  -5.59354 11.0769 -42.3119
LeftForeArm  4.96582 -55.4634 -16.0973
LeftHand  0.112786 6.91978 10.3594
RightShoulder  1.83917 1.92852 29.2178
RightArm  -26.7374 -9.19327 46.3452
RightForeArm  7.89516 51.3997 13.5151
RightHand  -0.650447 -1.23788 -18.08
LeftUpLeg  -12.6585 -7.8454 3.36266
LeftLeg  36.0516 -6.81202 -4.94094
LeftFoot  -16.4864 0.048468 -1.12168
LeftToes  5.08156e-010 -6.90346e-011 -6.33378e-011
